<?xml version="1.0" encoding="utf-8"?>
<svg width="1080" height="810" viewBox="-540 -405 1080 810" xmlns="http://www.w3.org/2000/svg">
  <style>
#looom {
--version:2; --tempo:120; --musicTime:0; 
}

#t0 {
--visible:1; --timeOffset:10; --speed:8; --bookmarkIndex:-1; --latched:0; --playMode:0; --masked:0; --blendMode:0; --pressureEnabled:0; 
stroke:#FFFFFF; stroke-opacity:1; fill-opacity:0; stroke-width:10; stroke-linecap:round; stroke-linejoin:round;
}
@keyframes t0 { 0% { opacity: 1; } 25% { opacity: 0; } }
#t0 .frame { animation:t0 0.5s calc(var(--index) * 0.125s) steps(1) infinite; }

</style>
  <g id="w0" transform="translate(103.00 104.75) scale(1.02 1.02) rotate(-356.57)" class="weave">
    <g id="t0" transform="translate(480.58 721.85)" class="thread">
      <g id="f0" style="--index:0; opacity:1;" class="frame">
        <path d="M-500.44,-628.24" />
        <path d="M-490.60,-569.75" />
        <path d="M-549.81,-561.31" />
        <path d="M-559.57,-613.95" />
        <path d="M-742.13,-638.77L-746.22,-638.72L-749.01,-637.28L-754.58,-633.24L-759.08,-628.27L-763.21,-621.43L-765.02,-616.38L-765.32,-611.82L-763.38,-606.34L-759.57,-600.65L-748.62,-594.82L-741.70,-593.97L-734.81,-594.29L-727.00,-596.84L-721.54,-599.95L-717.64,-606.66L-716.87,-610.88L-717.44,-618.83L-720.69,-626.28L-723.44,-631.62L-729.24,-637.17L-737.12,-640.47L-740.28,-640.31" />
        <path d="M-739.03,-615.06" />
        <path d="M-565.43,-641.32L-564.24,-642.84L-549.90,-648.43L-537.84,-650.43L-524.33,-651.00L-513.23,-650.39L-503.99,-648.70L-492.33,-645.31L-482.52,-640.85L-466.09,-628.85L-458.29,-617.85L-453.29,-605.25L-452.89,-595.98L-453.60,-590.40L-459.07,-571.96L-461.09,-568.31L-474.74,-552.58L-489.32,-543.13L-500.81,-538.35L-521.39,-533.91L-538.29,-532.42L-546.33,-532.74L-558.01,-535.08L-565.39,-537.84L-571.71,-541.63L-578.84,-548.26L-581.15,-553.33L-586.19,-559.92L-591.97,-577.45L-592.81,-582.13L-591.84,-592.61L-590.07,-603.13L-585.45,-618.40L-582.28,-624.36L-576.19,-632.42L-570.56,-638.77L-566.47,-641.34" />
        <path d="M-740.29,-640.76L-732.29,-642.29L-703.85,-643.83L-662.25,-642.64L-655.31,-643.14L-588.00,-642.13L-563.73,-643.75" />
        <path d="M-742.65,-591.89L-660.45,-571.17L-616.13,-556.68L-602.42,-551.17L-589.35,-547.15L-573.81,-540.62" />
        <path d="M-803.62,-474.09L-804.84,-489.92L-813.90,-548.08L-815.39,-563.13L-817.42,-572.48L-823.42,-619.20L-823.12,-628.28L-824.86,-644.12L-825.04,-659.42L-825.80,-663.84L-826.21,-686.15L-825.43,-687.96" />
        <path d="M-824.73,-689.73L-820.41,-691.95L-810.82,-694.74L-795.99,-695.46L-788.06,-697.29L-771.26,-697.97L-742.21,-702.71L-701.66,-706.25L-666.10,-706.92L-621.60,-710.39L-603.17,-710.06L-584.37,-712.02L-578.45,-711.91L-556.34,-715.13L-507.90,-717.87L-490.47,-717.22L-476.96,-717.96L-448.35,-716.45L-444.38,-717.70L-421.34,-717.28L-412.44,-718.10L-395.67,-717.47L-393.68,-718.09L-382.50,-717.23" />
        <path d="M-382.62,-714.70L-381.97,-695.57L-380.97,-690.80L-380.16,-676.20L-378.37,-665.51L-379.07,-659.39L-377.01,-643.83L-377.36,-629.46L-373.72,-593.38L-374.09,-587.67L-372.53,-564.51L-372.40,-546.43L-370.07,-526.01L-370.12,-500.75" />
        <path d="M-372.34,-501.01L-407.24,-499.76L-420.51,-497.74L-430.91,-497.41L-447.16,-495.56L-449.44,-496.15L-455.71,-495.36L-463.96,-496.29L-465.39,-495.45L-472.09,-495.36L-485.35,-493.35L-487.63,-493.94L-503.59,-493.23L-508.85,-493.99L-525.23,-494.00L-537.06,-492.82L-551.59,-492.95L-553.02,-492.11L-561.15,-491.19L-567.12,-491.53L-577.10,-490.48L-579.38,-491.07L-584.52,-489.98L-598.03,-491.67L-637.23,-487.90L-649.49,-487.44L-651.76,-488.03L-676.86,-484.84L-696.23,-485.01L-710.63,-483.29L-720.31,-483.38L-721.74,-482.54L-724.73,-482.71L-728.02,-481.74L-742.84,-480.74L-746.84,-479.35L-757.24,-479.02L-761.24,-477.63L-762.38,-477.93L-765.24,-476.24L-780.78,-474.82L-782.93,-473.56L-788.19,-474.32L-789.62,-473.47L-790.04,-474.19L-791.90,-474.06L-795.18,-473.10L-795.60,-473.81L-798.17,-473.27L-798.59,-473.98L-800.02,-473.14L-803.01,-473.31" />
        <path d="M-781.86,-701.92L-782.71,-704.43L-781.93,-711.22L-782.27,-724.38L-780.02,-747.49L-778.89,-752.04L-776.47,-753.45L-766.90,-754.03L-758.42,-755.70L-744.34,-756.06L-740.77,-754.55L-740.37,-729.90L-739.34,-726.26L-739.24,-716.05L-737.63,-707.22" />
        <path d="M-700.13,-709.29L-700.46,-710.62L-698.17,-720.97L-698.28,-724.64L-696.65,-731.10L-696.94,-733.70L-691.71,-733.36L-677.13,-735.64L-663.04,-736.01L-661.45,-736.83L-659.83,-711.79" />
        <path d="M-589.48,-715.43L-587.28,-726.35L-586.19,-759.86L-585.02,-772.22L-585.43,-776.30L-582.86,-798.08L-583.11,-804.13L-581.54,-826.45L-579.12,-846.25L-576.18,-860.51L-573.69,-880.67L-572.72,-883.23" />
        <path d="M-481.55,-719.89L-485.88,-743.46L-488.75,-754.58L-488.98,-761.94L-491.16,-773.27L-492.17,-785.25L-497.72,-821.50L-498.45,-835.08L-500.29,-842.26L-502.27,-860.02L-504.54,-868.59L-504.42,-879.85L-505.30,-888.38L-504.72,-892.50" />
        <path d="M-570.10,-885.74L-566.79,-885.25L-531.62,-889.86L-505.22,-891.46" />
        <path d="M-522.52,-589.92L-523.55,-591.05L-523.45,-593.21L-521.35,-593.72L-519.84,-590.79L-521.79,-588.76L-523.93,-588.55L-525.77,-591.76" />
        <path d="M-525.77,-591.76L-525.36,-593.95L-522.07,-594.88L-519.19,-593.62L-518.37,-591.54L-520.85,-588.54L-523.56,-587.97L-525.23,-589.35L-525.77,-591.76" />
        <path d="M-525.77,-591.76L-525.12,-594.58" />
        <path d="M-525.12,-594.58L-523.04,-595.40L-519.85,-594.17L-518.13,-592.18L-518.23,-590.02L-520.85,-588.54L-524.20,-588.22L-525.81,-588.99L-526.44,-592.31L-525.12,-594.58" />
        <path d="M-525.12,-594.58L-522.38,-595.71" />
        <path d="M-522.38,-595.71L-518.94,-594.25L-518.56,-590.30L-519.30,-588.38L-520.46,-587.65L-525.03,-587.22L-527.00,-588.56L-527.90,-591.55L-525.45,-594.86L-522.38,-595.71" />
        <path d="M-522.38,-595.71L-520.52,-594.72L-517.71,-590.99L-519.05,-589.02L-522.56,-587.15" />
        <path d="M-558.04,-966.23L-562.21,-964.99L-567.86,-957.55L-569.39,-951.67L-568.54,-945.45L-566.82,-942.68L-564.17,-940.38L-560.63,-938.86L-551.61,-938.76L-543.48,-940.21L-540.75,-942.25L-537.59,-948.35L-536.73,-951.81L-536.64,-958.49L-540.20,-965.00L-543.22,-967.59L-546.90,-970.09L-551.33,-970.82" />
        <path d="M-504.60,-1028.90L-507.02,-1029.57" />
        <path d="M-507.02,-1029.57L-509.97,-1029.17L-514.80,-1025.50L-519.32,-1019.55L-522.12,-1013.16L-522.93,-1009.38L-522.91,-997.05L-522.28,-992.47L-520.39,-988.39L-511.01,-978.34L-502.53,-974.83L-492.81,-974.49L-487.58,-975.21L-476.19,-979.77L-468.63,-987.81L-464.94,-994.98L-463.17,-1001.56L-463.19,-1006.56L-468.63,-1019.49L-474.48,-1025.69L-482.16,-1030.64L-487.34,-1031.93L-493.69,-1032.06L-500.94,-1031.40L-507.02,-1029.57" />
        <path d="M-507.02,-1029.57L-510.73,-1027.39" />
        <path d="M-594.11,-1046.99" />
        <path d="M-585.46,-1015.50" />
        <path d="M-540.67,-1019.63" />
        <path d="M-528.96,-1065.58" />
        <path d="M-565.82,-1081.54L-567.46,-1081.32" />
        <path d="M-757.10,-598.01L-752.59,-595.03L-745.34,-592.68" />
      </g>
      <g id="f1" style="--index:1; opacity:0;" class="frame">
        <path d="M-824.60,-687.39L-818.87,-616.58L-816.19,-603.98L-815.13,-588.54L-811.42,-574.18L-811.05,-568.73L-807.58,-558.02L-805.50,-540.81L-804.41,-538.15L-800.14,-475.45L-800.99,-474.48" />
        <path d="M-381.23,-704.76L-382.68,-699.19L-382.25,-692.83L-377.37,-621.05L-374.44,-604.81L-372.95,-583.01L-371.74,-578.53L-370.62,-562.17L-369.41,-557.69L-366.25,-511.35L-367.04,-509.47L-366.67,-504.02L-367.52,-503.05" />
        <path d="M-799.44,-471.56L-797.41,-475.58L-785.22,-474.88L-771.93,-477.71L-755.82,-479.67L-723.98,-479.82L-719.78,-480.84L-696.38,-481.29L-671.17,-485.06L-651.30,-486.62L-606.61,-488.19L-528.77,-494.16L-509.34,-494.30L-492.30,-496.74L-471.94,-497.37L-466.11,-498.66L-443.90,-500.26L-442.05,-501.23L-428.00,-501.51L-425.44,-502.26L-413.96,-501.78L-412.11,-502.75L-398.29,-502.32L-391.27,-502.46L-388.71,-503.21L-385.88,-502.33L-383.32,-503.08L-381.20,-502.42L-378.64,-503.17L-366.94,-503.40" />
        <path d="M-824.97,-691.33L-818.49,-691.24L-813.43,-692.61L-775.92,-696.41L-726.92,-698.62L-712.48,-700.58L-691.58,-701.73L-671.38,-704.33L-635.34,-706.00L-618.74,-708.65L-608.66,-708.51L-592.78,-711.17L-587.02,-711.09" />
        <path d="M-470.19,-721.73L-465.86,-722.39L-432.72,-722.65L-426.94,-724.01L-401.02,-723.66L-391.63,-724.97L-384.40,-727.03L-380.08,-726.97L-381.01,-711.86" />
        <path d="M-380.21,-715.82L-380.87,-714.03L-381.50,-698.40" />
        <path d="M-586.47,-713.80L-586.45,-721.99L-584.39,-732.49L-584.14,-745.60L-580.71,-768.74L-580.42,-781.30L-578.81,-790.14L-579.29,-797.75L-576.87,-811.00L-576.69,-825.20L-572.37,-842.93L-569.85,-863.29L-570.09,-867.09L-567.37,-884.18L-509.87,-889.50L-504.50,-890.93L-504.54,-891.48L-503.45,-891.55L-503.31,-889.37L-504.46,-881.66L-503.76,-870.79L-500.31,-859.55L-499.44,-845.97L-496.70,-828.68L-495.48,-809.66L-490.76,-787.05L-486.86,-751.83L-484.06,-742.19L-480.13,-723.34L-479.52,-722.29L-472.49,-723.28" />
        <path d="M-778.87,-699.95L-780.61,-703.02L-779.98,-713.05L-781.04,-720.86L-780.53,-726.89" />
        <path d="M-780.53,-726.89L-779.97,-727.63L-780.53,-726.89" />
        <path d="M-780.53,-726.89L-781.27,-727.45L-780.06,-728.28L-777.46,-728.63L-762.79,-727.97L-751.73,-729.47L-744.05,-726.53L-736.89,-727.50L-736.33,-728.24L-737.67,-708.85L-736.97,-703.64" />
        <path d="M-696.75,-705.12L-697.99,-714.23L-697.13,-717.66L-697.92,-723.51L-697.17,-737.53L-698.55,-752.58L-698.16,-754.62L-696.95,-755.45L-691.96,-752.81L-680.45,-751.06L-672.00,-752.20L-667.27,-751.52L-657.51,-752.84L-659.88,-745.90L-660.33,-734.57L-659.57,-724.07L-660.71,-708.02" />
        <path d="M-589.23,-712.80L-585.01,-713.87L-555.46,-717.01L-532.08,-717.20L-475.80,-724.20" />
        <path d="M-739.62,-613.52" />
        <path d="M-516.06,-648.09L-521.93,-648.79L-531.51,-647.05L-544.11,-643.31L-561.66,-635.68L-570.65,-629.12L-581.17,-617.46L-589.75,-603.33L-592.31,-584.51L-591.78,-575.86L-586.49,-559.65L-581.87,-553.15L-572.76,-545.57L-556.15,-538.93L-528.95,-534.70L-509.39,-534.95L-498.74,-536.82L-493.04,-539.17L-479.97,-547.87L-466.43,-561.53L-458.38,-575.60L-456.64,-579.08L-453.08,-594.22L-452.68,-604.07L-454.48,-614.18L-458.29,-622.96L-460.24,-625.44L-477.31,-640.19L-486.69,-645.55L-495.13,-647.77L-500.09,-648.24L-516.06,-648.09" />
        <path d="M-516.06,-648.09L-530.97,-647.12" />
        <path d="M-735.25,-639.65L-732.64,-640.52L-710.33,-640.57L-697.67,-639.43L-687.62,-637.41L-680.52,-637.21L-644.40,-640.07L-635.69,-640.07L-616.93,-642.40L-609.30,-642.27L-596.97,-643.80L-533.65,-646.78" />
        <path d="M-738.36,-590.27L-706.47,-583.36L-695.69,-579.80L-661.39,-571.01L-644.31,-564.97L-633.12,-562.55L-616.71,-557.52L-604.98,-555.17L-592.99,-550.67L-588.57,-550.13L-579.46,-546.91L-568.28,-544.50" />
        <path d="M-525.04,-590.70L-524.84,-593.45L-523.30,-594.19L-520.08,-594.59L-518.27,-593.18" />
        <path d="M-518.27,-593.18L-517.54,-591.64L-517.94,-590.50L-520.95,-588.49L-524.17,-588.09L-526.51,-589.43L-526.38,-592.71L-524.37,-594.05L-520.75,-595.59L-519.07,-595.26L-518.27,-593.18" />
        <path d="M-518.27,-593.18L-517.94,-590.50L-518.88,-589.29L-525.17,-587.42L-528.12,-589.23L-527.85,-591.44L-523.16,-593.11" />
        <path d="M-492.33,-616.55" />
        <path d="M-499.46,-560.14" />
        <path d="M-553.03,-618.79" />
        <path d="M-563.24,-569.62" />
        <path d="M-568.61,-1011.80L-573.00,-1012.20L-579.15,-1008.36L-583.19,-1003.80L-587.31,-994.90L-589.42,-985.94L-589.22,-979.63L-586.87,-974.62L-583.25,-970.11L-577.94,-967.84L-567.67,-965.91L-556.60,-965.43L-550.38,-966.28L-538.24,-972.61L-532.98,-978.00L-530.66,-982.98L-529.81,-991.43L-533.21,-1001.64L-536.37,-1005.21L-543.24,-1011.61L-552.34,-1014.70L-556.44,-1015.47L-566.96,-1014.36" />
        <path d="M-522.83,-923.36L-526.52,-923.53L-528.07,-922.65L-530.58,-916.63L-530.93,-911.92L-529.98,-907.38L-527.57,-904.37L-524.02,-902.86L-520.33,-902.70L-515.80,-903.65L-512.42,-905.78L-506.49,-913.60L-505.09,-920.46L-507.04,-922.52L-516.27,-926.60L-520.66,-927.00" />
        <path d="M-510.04,-1080.56L-511.47,-1081.92L-514.14,-1080.92L-518.26,-1076.91L-523.43,-1069.32L-525.45,-1061.55L-525.87,-1049.01L-524.54,-1041.71L-521.67,-1034.63L-520.14,-1032.66L-511.64,-1025.44L-502.65,-1021.40L-495.93,-1020.16L-489.28,-1021.72L-478.04,-1028.29L-466.57,-1037.70L-464.73,-1040.14L-462.45,-1048.26L-463.46,-1064.34L-466.02,-1071.47L-471.56,-1077.55L-480.76,-1083.12L-492.11,-1088.39L-499.58,-1088.27L-514.31,-1082.14" />
        <path d="M-735.15,-641.12L-742.95,-640.13L-752.20,-634.99L-756.58,-630.47L-760.34,-625.04L-764.49,-610.89L-763.72,-606.78L-758.97,-598.71L-755.16,-595.98L-749.24,-594.25L-741.56,-594.24L-735.93,-594.71L-730.93,-596.34" />
        <path d="M-736.67,-589.78L-744.23,-593.47" />
        <path d="M-732.40,-595.28L-726.23,-596.87L-722.08,-599.67L-718.69,-604.96L-716.91,-612.09L-719.58,-623.57L-722.32,-629.06L-729.68,-636.65L-731.37,-637.44" />
        <path d="M-733.85,-589.72L-751.98,-595.06" />
        <path d="M-751.98,-595.06L-752.50,-595.35L-751.98,-595.06" />
        <path d="M-751.98,-595.06L-743.33,-591.13" />
        <path d="M-742.53,-590.92L-738.22,-589.65" />
      </g>
      <g id="f2" style="--index:2; opacity:0;" class="frame">
        <path d="M-802.46,-475.61L-804.46,-496.04L-805.06,-513.93L-808.19,-543.48L-811.00,-557.28L-816.14,-594.20L-818.01,-600.50L-818.54,-613.49L-820.42,-619.79L-826.09,-661.00L-825.35,-663.81L-826.35,-680.56L-826.01,-686.59L-823.86,-691.21L-816.29,-691.61L-811.80,-690.54L-806.44,-691.20L-800.35,-690.33L-786.41,-692.07L-779.64,-694.54L-759.34,-697.61L-757.67,-697.28L-737.30,-699.81L-730.67,-699.01L-695.42,-704.48L-684.10,-705.35L-678.61,-704.94L-656.09,-707.75L-634.25,-707.20L-624.61,-708.40L-612.08,-708.33L-600.28,-709.79L-582.80,-709.25L-559.21,-712.19L-519.89,-715.45L-483.50,-720.52L-475.80,-719.85L-463.47,-721.38L-460.12,-720.71L-441.70,-721.37L-438.35,-720.70L-421.46,-720.63L-387.63,-724.29" />
        <path d="M-387.29,-725.97L-384.95,-715.92L-383.68,-714.44L-382.74,-711.29L-382.08,-705.93L-381.48,-692.40L-382.30,-668.35L-381.16,-659.24L-381.17,-646.17L-375.96,-608.72L-375.03,-596.86L-375.17,-580.51L-372.17,-560.75L-372.50,-554.72L-371.50,-546.68L-372.11,-534.08L-368.37,-512.77L-369.04,-509.43L-368.85,-503.46" />
        <path d="M-799.27,-476.65L-796.56,-475.86L-784.45,-476.40L-761.40,-481.20L-745.07,-482.66L-734.45,-482.73L-700.28,-487.35L-681.74,-488.27L-674.59,-487.66L-656.05,-488.58L-653.81,-489.29L-631.82,-489.66L-611.79,-491.05L-603.89,-490.67L-594.23,-492.49L-559.13,-494.13L-543.33,-493.37L-490.69,-495.20L-470.18,-495.11L-455.09,-496.59L-443.23,-496.63L-432.59,-497.94L-402.68,-499.17L-395.00,-500.77L-387.10,-500.39L-381.89,-502.03L-372.50,-502.12L-370.01,-503.32" />
        <path d="M-781.34,-699.59L-782.29,-703.06L-780.63,-716.13L-771.55,-715.88L-758.47,-718.51L-748.13,-718.33L-743.41,-717.21L-738.68,-718.23L-737.91,-704.42L-738.43,-702.50" />
        <path d="M-699.72,-706.31L-698.83,-708.38L-697.30,-728.24L-698.25,-731.71L-698.60,-740.13L-697.59,-755.93L-698.00,-769.89L-697.70,-771.29L-696.22,-771.87L-683.89,-769.92L-671.64,-769.22L-668.17,-768.03L-664.92,-768.47L-659.97,-767.86L-659.39,-766.38L-660.66,-759.89L-661.35,-749.77L-660.43,-735.59L-660.75,-725.63L-659.59,-718.39L-660.42,-712.92L-660.06,-708.79" />
        <path d="M-588.71,-716.57L-583.84,-739.89L-581.63,-767.72L-581.66,-781.83L-579.70,-798.44L-579.58,-814.31L-577.71,-823.61L-576.85,-839.78L-574.91,-847.83L-572.27,-868.13L-568.98,-881.41L-567.28,-884.65L-562.25,-887.08L-553.75,-888.31L-547.48,-886.52L-543.12,-887.39L-531.16,-887.44L-514.54,-889.75L-505.39,-888.25L-504.58,-860.34L-502.90,-852.87L-501.17,-837.73L-495.26,-810.98L-491.37,-775.30L-489.46,-770.50L-487.79,-760.90L-488.02,-758.24L-485.46,-746.42L-481.36,-736.07L-478.36,-723.14" />
        <path d="M-733.37,-638.76L-734.10,-639.53" />
        <path d="M-734.10,-639.53L-736.69,-640.08L-741.29,-638.37L-756.52,-629.04L-761.81,-622.18L-762.61,-616.17L-762.27,-610.00L-760.94,-606.91L-758.54,-603.10L-754.17,-598.72L-750.22,-595.57L-744.73,-593.09L-736.51,-591.41L-728.68,-593.28L-722.99,-596.59L-720.17,-600.29L-717.09,-608.04L-716.29,-614.05L-718.04,-622.73L-722.83,-632.69L-728.59,-637.54L-734.10,-639.53" />
        <path d="M-734.10,-639.53L-737.84,-640.23" />
        <path d="M-738.50,-613.52" />
        <path d="M-731.24,-641.68L-722.17,-641.93L-707.25,-640.22L-685.24,-639.31L-656.42,-641.29L-624.56,-639.94L-571.29,-641.84L-567.09,-642.73L-562.47,-642.41L-555.66,-643.24L-552.89,-644.33" />
        <path d="M-734.98,-589.75L-732.61,-590.01L-696.40,-581.97L-678.41,-579.27L-661.87,-574.43L-651.65,-572.48L-610.82,-559.74L-589.55,-551.06L-573.91,-546.06" />
        <path d="M-555.39,-645.25L-518.65,-645.57L-497.28,-644.17L-490.98,-643.33L-487.38,-641.97L-474.04,-634.95L-465.15,-627.35L-459.61,-618.74L-455.45,-614.98L-450.72,-598.03L-451.76,-590.31L-461.99,-566.04L-471.56,-553.34L-480.21,-547.50L-496.96,-539.84L-513.87,-535.40L-530.11,-533.79L-552.75,-536.53L-564.71,-540.75L-572.65,-546.76L-581.63,-555.83L-589.12,-567.32L-591.73,-576.12L-592.17,-579.38L-591.25,-590.62L-590.37,-597.20L-588.48,-600.44L-586.30,-608.02L-580.19,-618.85L-574.62,-625.68L-573.43,-625.81L-560.13,-635.98L-542.71,-642.09" />
        <path d="M-526.36,-590.09L-526.40,-593.22" />
        <path d="M-526.40,-593.22L-524.33,-596.52L-522.22,-597.11L-520.25,-596.56L-517.09,-594.10L-515.92,-591.90L-516.74,-587.93L-520.85,-585.57L-525.71,-586.22L-528.32,-590.65L-527.81,-592.33L-526.40,-593.22" />
        <path d="M-526.40,-593.22L-523.00,-593.43L-521.44,-592.06L-522.56,-590.17L-525.25,-589.65" />
        <path d="M-483.35,-598.03" />
        <path d="M-517.43,-554.52" />
        <path d="M-565.71,-583.41" />
        <path d="M-535.48,-628.60" />
        <path d="M-559.81,-903.45L-555.03,-910.92L-550.50,-914.18L-545.30,-914.38L-541.67,-913.02L-539.21,-909.45L-538.50,-906.04" />
        <path d="M-521.36,-948.23L-523.59,-946.25L-524.33,-943.39L-523.59,-933.03L-522.61,-930.34L-518.42,-926.96L-513.53,-926.77L-510.47,-927.45L-507.86,-929.11L-502.06,-933.55L-498.85,-939.46L-498.67,-944.35L-502.46,-950.57L-505.92,-953.69L-508.51,-955.15L-512.03,-955.48L-519.95,-954.65" />
        <path d="M-574.13,-1032.15L-577.99,-1032.10L-584.02,-1028.71L-586.16,-1023.72L-587.73,-1017.07L-587.08,-1008.80L-582.59,-1002.79L-575.36,-999.02L-567.08,-998.57L-559.38,-1000.88L-553.91,-1004.81L-551.23,-1010.91L-550.20,-1017.00L-552.50,-1024.14L-558.65,-1030.69L-565.88,-1034.46L-572.52,-1036.03" />
        <path d="M-509.50,-1085.63" />
        <path d="M-522.75,-1060.06" />
        <path d="M-520.14,-1034.85" />
        <path d="M-500.73,-1018.86" />
        <path d="M-481.14,-1028.16" />
        <path d="M-465.65,-1042.20" />
        <path d="M-461.92,-1066.74" />
        <path d="M-482.73,-1083.78" />
        <path d="M-751.68,-595.80L-746.17,-592.38L-734.53,-589.30" />
      </g>
      <g id="f3" style="--index:3; opacity:0;" class="frame">
        <path d="M-802.91,-474.04L-805.03,-497.79L-808.87,-526.89L-811.78,-536.61L-814.27,-567.44L-818.53,-599.02L-820.57,-608.07L-822.91,-629.08L-824.61,-634.73L-824.75,-644.54L-826.61,-656.02L-826.36,-667.03L-826.65,-675.02L-827.93,-682.17L-827.68,-689.19" />
        <path d="M-825.10,-690.83L-798.10,-691.46L-778.91,-693.94L-766.12,-696.92L-754.03,-698.73L-707.22,-701.79L-690.50,-704.15L-679.16,-704.18L-647.67,-707.23L-634.81,-707.14L-595.65,-710.49L-579.09,-710.72" />
        <path d="M-582.44,-710.99L-561.49,-712.41L-545.00,-715.71L-534.86,-716.14L-499.83,-721.35L-460.27,-721.92L-413.29,-719.46L-395.53,-719.29L-383.21,-720.16" />
        <path d="M-382.09,-718.85L-381.17,-675.89L-375.39,-616.92L-373.33,-580.62L-372.11,-572.86L-371.62,-555.67L-370.85,-553.77L-367.32,-520.71L-367.65,-500.83" />
        <path d="M-367.63,-501.13L-380.28,-499.98L-391.89,-500.28L-409.51,-498.29L-469.53,-494.74L-510.84,-495.22L-532.39,-493.85L-571.00,-493.82L-578.40,-493.17" />
        <path d="M-575.38,-492.63L-583.93,-492.99L-614.73,-490.82L-626.35,-491.12L-645.49,-489.25L-665.40,-489.28L-673.46,-488.08L-713.79,-485.42L-725.93,-483.01L-741.51,-483.62L-765.54,-481.83L-776.67,-480.56L-779.83,-479.27L-786.93,-478.60L-797.26,-475.74L-804.39,-474.77" />
        <path d="M-782.49,-699.40L-781.52,-706.07L-780.97,-734.23L-779.29,-734.91L-775.01,-734.74L-760.78,-738.20L-747.45,-738.86L-739.77,-740.24L-738.60,-739.74L-737.44,-728.44L-737.10,-703.09" />
        <path d="M-700.07,-707.08L-697.16,-727.11L-696.00,-749.72L-695.06,-752.74L-689.77,-753.18L-680.65,-752.48L-667.77,-753.04L-661.90,-751.40L-662.33,-739.84L-660.12,-709.71" />
        <path d="M-589.02,-716.15L-587.04,-750.30L-585.34,-760.46L-585.44,-774.54L-584.41,-789.18L-577.50,-836.95L-568.97,-885.18" />
        <path d="M-566.66,-885.25L-565.14,-886.49L-561.89,-887.40L-553.72,-887.35L-535.26,-888.91L-527.77,-887.98L-523.98,-889.04L-515.76,-889.24L-512.27,-890.11L-506.99,-889.60L-503.11,-891.16" />
        <path d="M-502.57,-891.31L-503.25,-869.19L-500.66,-842.86L-489.38,-772.65L-486.44,-746.77L-481.71,-724.88" />
        <path d="M-738.49,-613.92" />
        <path d="M-545.31,-643.96L-543.57,-645.15L-526.18,-648.52L-491.97,-643.78L-481.39,-639.82L-472.67,-634.31L-466.15,-627.37L-459.72,-618.32L-453.97,-606.58L-452.74,-601.91L-452.48,-589.98L-454.71,-580.60L-464.79,-563.63L-482.14,-547.04L-490.03,-541.80L-492.12,-540.72L-501.35,-539.21L-514.64,-535.30L-525.26,-533.65L-542.69,-533.79L-552.54,-535.19L-565.92,-539.48L-577.25,-547.18L-579.62,-549.49L-589.16,-565.17L-591.14,-573.57L-593.32,-589.21L-588.62,-607.52L-585.66,-614.34L-575.79,-630.02L-563.99,-640.22L-555.04,-645.13L-547.34,-647.33L-540.09,-646.94" />
        <path d="M-737.00,-640.23L-731.18,-642.64L-721.95,-643.57L-659.21,-640.59L-612.54,-640.80L-605.30,-641.59L-593.01,-641.16L-566.11,-642.07L-555.83,-643.24L-547.05,-642.77" />
        <path d="M-742.26,-591.62L-702.98,-583.91L-650.75,-569.92L-646.87,-568.09L-630.09,-563.50L-618.10,-559.08L-612.24,-557.99L-572.75,-543.02" />
        <path d="M-526.21,-592.60L-525.30,-594.83L-522.97,-595.45" />
        <path d="M-522.97,-595.45L-519.68,-594.78L-517.09,-593.18L-516.25,-591.55L-518.32,-588.72L-521.57,-586.46L-526.03,-587.69L-527.82,-590.01L-526.70,-594.11L-524.26,-595.66L-522.97,-595.45" />
        <path d="M-522.97,-595.45L-519.55,-593.38L-518.00,-590.94L-519.01,-587.19L-520.52,-586.70L-522.76,-587.61" />
        <path d="M-482.57,-582.72" />
        <path d="M-534.05,-554.14" />
        <path d="M-566.44,-601.59" />
        <path d="M-519.67,-631.87" />
        <path d="M-553.44,-930.18L-556.71,-929.73L-559.39,-927.36L-560.40,-922.56L-560.06,-917.60L-559.13,-915.73L-556.15,-913.47L-554.10,-913.08L-544.47,-913.40L-540.53,-916.27L-538.69,-919.86L-539.20,-928.46L-543.14,-932.92L-547.34,-934.35L-555.76,-932.53" />
        <path d="M-512.63,-973.11L-514.12,-974.24L-518.29,-973.00L-524.04,-963.88L-526.28,-955.90L-525.16,-947.72L-522.99,-944.02L-515.55,-938.37L-510.65,-936.70L-501.59,-936.27L-497.38,-937.18L-491.37,-942.01L-485.23,-953.19L-485.02,-956.55L-486.66,-963.66L-488.51,-967.41L-494.08,-973.98L-498.74,-976.35L-505.18,-977.13L-513.56,-974.99" />
        <path d="M-578.96,-1064.65" />
        <path d="M-588.15,-1050.18" />
        <path d="M-579.70,-1036.49L-579.12,-1033.74" />
        <path d="M-564.36,-1045.52" />
        <path d="M-565.66,-1060.96" />
        <path d="M-453.51,-1097.87" />
        <path d="M-445.24,-1023.54" />
        <path d="M-493.08,-1002.15" />
        <path d="M-536.00,-1034.49" />
        <path d="M-533.16,-1091.97" />
        <path d="M-497.03,-1109.10" />
        <path d="M-735.84,-639.69L-738.55,-639.96L-748.10,-635.32L-753.78,-630.78L-757.69,-626.50L-759.43,-623.40L-761.49,-615.95L-761.35,-611.48L-759.54,-604.14L-757.76,-599.62L-755.19,-596.80L-746.81,-594.20L-734.55,-593.94L-727.21,-595.76L-724.07,-598.05L-719.77,-603.25L-717.99,-607.99L-717.68,-614.88L-718.97,-620.92L-721.93,-627.59L-727.33,-635.01L-731.10,-637.90L-736.40,-639.06" />
        <path d="M-756.42,-598.06L-751.86,-594.52L-744.08,-592.32" />
      </g>
    </g>
  </g>
</svg>